<svg width="193" height="63" viewBox="0 0 193 63" fill="none" xmlns="http://www.w3.org/2000/svg">
<rect x="0.5" y="0.5" width="192" height="62" rx="31" fill="#1C1C1C"/>
<rect x="0.5" y="0.5" width="192" height="62" rx="31" stroke="#262626"/>
<path d="M25.5852 38V24.9091H27.1705V36.5938H33.2557V38H25.5852ZM39.4943 38.2045C38.608 38.2045 37.8303 37.9936 37.1612 37.5717C36.4964 37.1499 35.9766 36.5597 35.6016 35.8011C35.2308 35.0426 35.0455 34.1562 35.0455 33.142C35.0455 32.1193 35.2308 31.2266 35.6016 30.4638C35.9766 29.701 36.4964 29.1087 37.1612 28.6868C37.8303 28.2649 38.608 28.054 39.4943 28.054C40.3807 28.054 41.1563 28.2649 41.821 28.6868C42.4901 29.1087 43.0099 29.701 43.3807 30.4638C43.7557 31.2266 43.9432 32.1193 43.9432 33.142C43.9432 34.1562 43.7557 35.0426 43.3807 35.8011C43.0099 36.5597 42.4901 37.1499 41.821 37.5717C41.1563 37.9936 40.3807 38.2045 39.4943 38.2045ZM39.4943 36.8494C40.1676 36.8494 40.7216 36.6768 41.1562 36.3317C41.5909 35.9865 41.9126 35.5327 42.1214 34.9702C42.3303 34.4077 42.4347 33.7983 42.4347 33.142C42.4347 32.4858 42.3303 31.8743 42.1214 31.3075C41.9126 30.7408 41.5909 30.2827 41.1562 29.9332C40.7216 29.5838 40.1676 29.4091 39.4943 29.4091C38.821 29.4091 38.267 29.5838 37.8324 29.9332C37.3977 30.2827 37.076 30.7408 36.8672 31.3075C36.6584 31.8743 36.554 32.4858 36.554 33.142C36.554 33.7983 36.6584 34.4077 36.8672 34.9702C37.076 35.5327 37.3977 35.9865 37.8324 36.3317C38.267 36.6768 38.821 36.8494 39.4943 36.8494ZM49.1351 38.2301C48.513 38.2301 47.9483 38.1129 47.4412 37.8786C46.9341 37.6399 46.5314 37.2969 46.2331 36.8494C45.9348 36.3977 45.7857 35.8523 45.7857 35.2131C45.7857 34.6506 45.8965 34.1946 46.1181 33.8452C46.3397 33.4915 46.6358 33.2145 47.0066 33.0142C47.3773 32.8139 47.7864 32.6648 48.2338 32.5668C48.6855 32.4645 49.1394 32.3835 49.5953 32.3239C50.1919 32.2472 50.6756 32.1896 51.0463 32.1513C51.4213 32.1087 51.6941 32.0384 51.8645 31.9403C52.0392 31.8423 52.1266 31.6719 52.1266 31.429V31.3778C52.1266 30.7472 51.954 30.2571 51.6088 29.9077C51.2679 29.5582 50.7502 29.3835 50.0556 29.3835C49.3354 29.3835 48.7708 29.5412 48.3617 29.8565C47.9526 30.1719 47.665 30.5085 47.4988 30.8665L46.0669 30.3551C46.3226 29.7585 46.6635 29.294 47.0897 28.9616C47.5201 28.625 47.9888 28.3906 48.4959 28.2585C49.0073 28.1222 49.5101 28.054 50.0044 28.054C50.3198 28.054 50.682 28.0923 51.0911 28.169C51.5044 28.2415 51.9029 28.3928 52.2864 28.6229C52.6742 28.853 52.9959 29.2003 53.2516 29.6648C53.5073 30.1293 53.6351 30.7514 53.6351 31.5312V38H52.1266V36.6705H52.0499C51.9476 36.8835 51.7772 37.1115 51.5385 37.3544C51.2999 37.5973 50.9824 37.804 50.5861 37.9744C50.1898 38.1449 49.7061 38.2301 49.1351 38.2301ZM49.3652 36.875C49.9618 36.875 50.4647 36.7578 50.8738 36.5234C51.2871 36.2891 51.5982 35.9865 51.807 35.6158C52.0201 35.245 52.1266 34.8551 52.1266 34.446V33.0653C52.0627 33.142 51.9221 33.2124 51.7047 33.2763C51.4917 33.3359 51.2445 33.3892 50.9632 33.4361C50.6863 33.4787 50.4157 33.517 50.1515 33.5511C49.8915 33.581 49.6806 33.6065 49.5186 33.6278C49.1266 33.679 48.7601 33.7621 48.4192 33.8771C48.0826 33.9879 47.8098 34.1562 47.601 34.3821C47.3965 34.6037 47.2942 34.9062 47.2942 35.2898C47.2942 35.8139 47.4881 36.2102 47.8759 36.4787C48.2679 36.7429 48.7644 36.875 49.3652 36.875ZM60.0959 38.2045C59.2777 38.2045 58.5554 37.9979 57.929 37.5845C57.3026 37.1669 56.8125 36.5788 56.4588 35.8203C56.1051 35.0575 55.9283 34.1562 55.9283 33.1165C55.9283 32.0852 56.1051 31.1903 56.4588 30.4318C56.8125 29.6733 57.3047 29.0874 57.9354 28.674C58.5661 28.2607 59.2947 28.054 60.1214 28.054C60.7607 28.054 61.2656 28.1605 61.6364 28.3736C62.0114 28.5824 62.2969 28.821 62.4929 29.0895C62.6932 29.3537 62.8487 29.571 62.9595 29.7415H63.0874V24.9091H64.5959V38H63.1385V36.4915H62.9595C62.8487 36.6705 62.6911 36.8963 62.4865 37.169C62.282 37.4375 61.9901 37.6783 61.6108 37.8913C61.2315 38.1001 60.7266 38.2045 60.0959 38.2045ZM60.3004 36.8494C60.9055 36.8494 61.4169 36.6918 61.8345 36.3764C62.2521 36.0568 62.5696 35.6158 62.7869 35.0533C63.0043 34.4865 63.1129 33.8324 63.1129 33.0909C63.1129 32.358 63.0064 31.7166 62.7933 31.1669C62.5803 30.6129 62.2649 30.1825 61.8473 29.8757C61.4297 29.5646 60.9141 29.4091 60.3004 29.4091C59.6612 29.4091 59.1286 29.5732 58.7024 29.9013C58.2805 30.2251 57.9631 30.6662 57.75 31.2244C57.5412 31.7784 57.4368 32.4006 57.4368 33.0909C57.4368 33.7898 57.5433 34.4247 57.7564 34.9957C57.9737 35.5625 58.2933 36.0142 58.7152 36.3509C59.1413 36.6832 59.6697 36.8494 60.3004 36.8494ZM73.3722 38H71.7102L76.517 24.9091H78.1534L82.9602 38H81.2983L77.3864 26.9801H77.2841L73.3722 38ZM73.9858 32.8864H80.6847V34.2926H73.9858V32.8864ZM86.3033 24.9091V38H84.7947V24.9091H86.3033ZM90.5748 24.9091V38H89.0662V24.9091H90.5748ZM98.6048 38V24.9091H106.454V26.3153H100.19V30.7386H105.866V32.1449H100.19V38H98.6048ZM108.071 38H106.409L111.216 24.9091H112.853L117.659 38H115.998L112.086 26.9801H111.983L108.071 38ZM108.685 32.8864H115.384V34.2926H108.685V32.8864ZM123.839 33.9091H125.578L127.035 35.8267L127.419 36.3381L129.592 39.2273H127.853L126.421 37.3097L126.063 36.8239L123.839 33.9091ZM130.129 31.4545C130.129 32.8352 129.879 34.0284 129.381 35.0341C128.882 36.0398 128.198 36.8153 127.329 37.3608C126.46 37.9062 125.467 38.179 124.35 38.179C123.234 38.179 122.241 37.9062 121.372 37.3608C120.502 36.8153 119.818 36.0398 119.32 35.0341C118.821 34.0284 118.572 32.8352 118.572 31.4545C118.572 30.0739 118.821 28.8807 119.32 27.875C119.818 26.8693 120.502 26.0938 121.372 25.5483C122.241 25.0028 123.234 24.7301 124.35 24.7301C125.467 24.7301 126.46 25.0028 127.329 25.5483C128.198 26.0938 128.882 26.8693 129.381 27.875C129.879 28.8807 130.129 30.0739 130.129 31.4545ZM128.595 31.4545C128.595 30.321 128.405 29.3643 128.026 28.5845C127.651 27.8047 127.142 27.2145 126.498 26.8139C125.859 26.4134 125.143 26.2131 124.35 26.2131C123.558 26.2131 122.84 26.4134 122.196 26.8139C121.557 27.2145 121.048 27.8047 120.669 28.5845C120.294 29.3643 120.106 30.321 120.106 31.4545C120.106 32.5881 120.294 33.5447 120.669 34.3246C121.048 35.1044 121.557 35.6946 122.196 36.0952C122.84 36.4957 123.558 36.696 124.35 36.696C125.143 36.696 125.859 36.4957 126.498 36.0952C127.142 35.6946 127.651 35.1044 128.026 34.3246C128.405 33.5447 128.595 32.5881 128.595 31.4545ZM133.919 24.9091V26.0597C133.919 26.4091 133.855 26.782 133.727 27.1783C133.604 27.5703 133.421 27.9517 133.178 28.3224C132.939 28.6889 132.649 29.0085 132.308 29.2812L131.49 28.6165C131.759 28.233 131.991 27.8345 132.187 27.4212C132.387 27.0036 132.487 26.5582 132.487 26.0852V24.9091H133.919ZM141.478 30.3807L140.123 30.7642C140.037 30.5384 139.912 30.3189 139.746 30.1058C139.584 29.8885 139.362 29.7095 139.081 29.5689C138.8 29.4283 138.439 29.358 138.001 29.358C137.4 29.358 136.899 29.4964 136.498 29.7734C136.102 30.0462 135.904 30.3935 135.904 30.8153C135.904 31.1903 136.04 31.4865 136.313 31.7038C136.586 31.9212 137.012 32.1023 137.591 32.2472L139.049 32.6051C139.927 32.8182 140.581 33.1442 141.011 33.5831C141.442 34.0178 141.657 34.5781 141.657 35.2642C141.657 35.8267 141.495 36.3295 141.171 36.7727C140.851 37.2159 140.404 37.5653 139.829 37.821C139.253 38.0767 138.584 38.2045 137.822 38.2045C136.82 38.2045 135.991 37.9872 135.335 37.5526C134.679 37.1179 134.263 36.483 134.089 35.6477L135.52 35.2898C135.657 35.8182 135.915 36.2145 136.294 36.4787C136.677 36.7429 137.178 36.875 137.796 36.875C138.499 36.875 139.057 36.7259 139.471 36.4276C139.888 36.125 140.097 35.7628 140.097 35.3409C140.097 35 139.978 34.7145 139.739 34.4844C139.501 34.25 139.134 34.0753 138.64 33.9602L137.003 33.5767C136.104 33.3636 135.444 33.0334 135.022 32.5859C134.604 32.1342 134.395 31.5696 134.395 30.892C134.395 30.3381 134.551 29.848 134.862 29.4219C135.177 28.9957 135.606 28.6612 136.147 28.4183C136.692 28.1754 137.31 28.054 138.001 28.054C138.972 28.054 139.735 28.267 140.289 28.6932C140.847 29.1193 141.243 29.6818 141.478 30.3807Z" fill="white"/>
<path d="M163.5 28.75L158 34.25L152.5 28.75" stroke="white" stroke-width="2"/>
</svg>
